<svg xmlns="http://www.w3.org/2000/svg" version="1.1" xmlns:xlink="http://www.w3.org/1999/xlink" xmlns:svgjs="http://svgjs.dev/svgjs" viewBox="0 0 6.2369384765625 6.969612381546868"><g transform="matrix(0.8571428571428571,0,0,0.8571428571428571,0.8909912109375,5.0157158916819125)"><g transform="matrix(1,0,0,1,0,0)" clip-path="url(#SvgjsClipPath32392)"><g clip-path="url(#SvgjsClipPath323900c8640fe-0d9d-49b7-9c22-1dc605905c51)"><path d=" M 4.29221567958728 -2.279483599091364 C 4.165034707377555 -2.5076877549003043 3.921496675486591 -2.6610265157205406 3.6418789351673366 -2.6610265157205406 L 3.418184742911933 -2.6610265157205406 L 3.4244986918868836 -2.6538105740348823 L 1.8135397105636937 -2.6538105740348823 L 1.818951666827938 -2.6610265157205406 L 1.555569795301414 -2.6610265157205406 C 1.1442611192188974 -2.6610265157205406 0.8105238162572069 -2.3272892127588496 0.8105238162572069 -1.9159805366763334 L 0.8105238162572069 -0.9950459790442072 C 0.8105238162572069 -0.5837373029616906 1.144261119218898 -0.2499999999999991 1.555569795301414 -0.2499999999999991 L 2.86345922582696 -0.2499999999999991 C 3.9377325442793216 -0.700094362642929 4.220958255441405 -1.6868743881566859 4.29221567958728 -2.279483599091364 Z M 3.079937476396706 -0.844413196356093 C 2.9473445479227363 -0.6955843990893928 2.75431810783138 -0.6017771571758361 2.5396438426830494 -0.6017771571758361 C 2.1400610718397273 -0.6017771571758361 1.8153436959851086 -0.9264945330304553 1.8153436959851086 -1.3260773038737774 C 1.8153436959851086 -1.5407515690221083 1.909150937898665 -1.7337780091134642 2.057979735165365 -1.8663709375874338 C 2.190572663639334 -2.0151997348541335 2.383599103730691 -2.1090069767676893 2.5982733688790214 -2.1090069767676893 C 2.9978561397223435 -2.1090069767676893 3.3225735155769613 -1.7842896009130715 3.3225735155769613 -1.3847068300697494 C 3.3225735155769613 -1.1700325649214185 3.2287662736634055 -0.9770061248300617 3.079937476396706 -0.844413196356093 Z M 3.5399537588574144 -2.1667345102529545 C 3.5399537588574144 -2.231677985423878 3.5922693360784352 -2.2839935626449006 3.6572128112493596 -2.2839935626449006 L 3.8809070035047624 -2.2839935626449006 C 3.9458504786756867 -2.2839935626449006 3.9981660558967085 -2.231677985423878 3.9981660558967085 -2.1667345102529545 C 3.9981660558967085 -2.1017910350820315 3.9458504786756867 -2.0494754578610093 3.8809070035047624 -2.0494754578610093 L 3.6572128112493596 -2.0494754578610093 C 3.5922693360784366 -2.0494754578610093 3.5399537588574144 -2.1017910350820315 3.5399537588574144 -2.1667345102529545 Z" fill="#23953c" transform="matrix(1,0,0,1,0,0)" fill-rule="nonzero"></path></g><g clip-path="url(#SvgjsClipPath323900c8640fe-0d9d-49b7-9c22-1dc605905c51)"><path d=" M 2.5396438426830485 -1.9304124200476496 C 2.3881090672842262 -1.9304124200476496 2.2492021898353065 -1.8744888719837989 2.142767049971848 -1.781583622780949 C 2.0498618007689995 -1.675148482917491 1.9939382527051484 -1.5362416054685708 1.9939382527051484 -1.3847068300697494 C 1.9939382527051484 -1.050969527108058 2.2654380586280376 -0.7794697211851696 2.5991753615897286 -0.7794697211851696 C 2.7507101369885505 -0.7794697211851696 2.88961701443747 -0.8353932692490202 2.9960521543009286 -0.9282985184518693 C 3.088957403503778 -1.0347336583153277 3.144880951567629 -1.1736405357642474 3.144880951567629 -1.3251753111630697 C 3.143978958856921 -1.6589126141247603 2.873381145644739 -1.9304124200476496 2.5396438426830485 -1.9304124200476496 Z" fill="#23953c" transform="matrix(1,0,0,1,0,0)" fill-rule="nonzero"></path></g><g clip-path="url(#SvgjsClipPath323900c8640fe-0d9d-49b7-9c22-1dc605905c51)"><path d=" M 4.29221567958728 -2.279483599091364 C 4.2218602481521135 -1.6868743881566859 3.938634536990029 -0.7009963553536362 2.8643612185376672 -0.2499999999999991 L 3.6418789351673366 -0.2499999999999991 C 4.053187611249854 -0.2499999999999991 4.386924914211544 -0.5837373029616906 4.386924914211544 -0.9950459790442072 L 4.386924914211544 -1.9159805366763334 C 4.386924914211544 -2.047671472439595 4.35174719849396 -2.172146466517199 4.29221567958728 -2.279483599091364 Z" fill="#1a702d" transform="matrix(1,0,0,1,0,0)" fill-rule="nonzero"></path></g><g clip-path="url(#SvgjsClipPath323900c8640fe-0d9d-49b7-9c22-1dc605905c51)"><path d=" M 3.4254006845975913 -2.6538105740348823 L 3.41908673562264 -2.6610265157205406 L 3.2441001497454294 -2.855856941233312 C 3.1647247912031893 -2.944252226882625 3.05197570236478 -2.993861825971525 2.9338146572621273 -2.993861825971525 L 2.706512494163895 -2.993861825971525 L 2.6812566982640913 -2.896446613215139 L 2.6262351429109474 -2.993861825971525 L 2.2681440367601597 -2.993861825971525 C 2.131041144732655 -2.993861825971525 2.0029581798122225 -2.926212372668479 1.9253868066913968 -2.81346328383007 L 1.8198536595386459 -2.6601245230098334 L 1.8144417032744018 -2.6529085813241755 L 3.4254006845975913 -2.6529085813241755 Z" fill="#114b1e" transform="matrix(1,0,0,1,0,0)" fill-rule="nonzero"></path></g><g clip-path="url(#SvgjsClipPath323900c8640fe-0d9d-49b7-9c22-1dc605905c51)"><path d=" M 3.8809070035047637 -2.0494754578610093 C 3.945850478675688 -2.0494754578610093 3.998166055896709 -2.1017910350820315 3.998166055896709 -2.1667345102529545 C 3.998166055896709 -2.231677985423878 3.945850478675688 -2.2839935626449006 3.8809070035047637 -2.2839935626449006 L 3.657212811249361 -2.2839935626449006 C 3.5922693360784366 -2.2839935626449006 3.539953758857415 -2.231677985423878 3.539953758857415 -2.1667345102529545 C 3.539953758857415 -2.1017910350820315 3.5922693360784366 -2.0494754578610093 3.657212811249361 -2.0494754578610093 L 3.8809070035047637 -2.0494754578610093 Z" fill="#ffffff" transform="matrix(1,0,0,1,0,0)" fill-rule="nonzero"></path></g><g clip-path="url(#SvgjsClipPath323900c8640fe-0d9d-49b7-9c22-1dc605905c51)"><path d=" M 2.5991753615897286 -1.9899439389543296 C 2.41697283402686 -1.9899439389543296 2.253712153388843 -1.908764594990675 2.142767049971848 -1.781583622780949 C 2.2492021898353065 -1.8744888719837989 2.3881090672842262 -1.9304124200476496 2.5396438426830485 -1.9304124200476496 C 2.873381145644739 -1.9304124200476496 3.144880951567629 -1.6589126141247603 3.144880951567629 -1.3251753111630697 C 3.144880951567629 -1.1736405357642474 3.088957403503778 -1.0347336583153277 2.9960521543009286 -0.9282985184518693 C 3.1232331265106548 -1.0392436218688643 3.2044124704743093 -1.2025043025068802 3.2044124704743093 -1.3847068300697498 C 3.203510477763602 -1.7184441330314404 2.9320106718407124 -1.9899439389543296 2.5991753615897286 -1.9899439389543296 Z" fill="#1a702d" transform="matrix(1,0,0,1,0,0)" fill-rule="nonzero"></path></g><g clip-path="url(#SvgjsClipPath323900c8640fe-0d9d-49b7-9c22-1dc605905c51)"><path d=" M 1.8748752148917889 -1.3847068300697494 C 1.8748752148917889 -1.5696153357647407 1.9443286536162483 -1.7373859799562932 2.057979735165365 -1.865468944876726 C 1.909150937898665 -1.7328760164027566 1.8153436959851086 -1.5398495763114002 1.8153436959851086 -1.3251753111630697 C 1.8153436959851086 -0.9255925403197476 2.1400610718397273 -0.6008751644651289 2.5396438426830494 -0.6008751644651289 C 2.7543181078313803 -0.6008751644651289 2.9473445479227363 -0.6946824063786856 3.079937476396706 -0.8435112036453853 C 2.951854511476273 -0.7298601220962686 2.7831818745740127 -0.660406683371809 2.5991753615897286 -0.660406683371809 C 2.1995925907464065 -0.6613086760825171 1.8748752148917889 -0.9860260519371344 1.8748752148917889 -1.3847068300697494 Z" fill="#1a702d" transform="matrix(1,0,0,1,0,0)" fill-rule="nonzero"></path></g><g clip-path="url(#SvgjsClipPath323900c8640fe-0d9d-49b7-9c22-1dc605905c51)"><path d=" M 2.5991753615897286 -2.1090069767676893 C 2.384501096441398 -2.1090069767676893 2.1914746563500414 -2.0151997348541335 2.0588817278760727 -1.8663709375874338 C 1.9452306463269557 -1.7382879726670009 1.8757772076024963 -1.5696153357647407 1.8757772076024963 -1.3856088227804566 C 1.8757772076024963 -0.9860260519371344 2.200494583457114 -0.6613086760825171 2.6000773543004363 -0.6613086760825171 C 2.7849858599954276 -0.6613086760825171 2.95275650418698 -0.7307621148069758 3.080839469107413 -0.844413196356093 C 3.229668266374113 -0.9770061248300617 3.323475508287669 -1.170032564921419 3.323475508287669 -1.3847068300697494 C 3.3225735155769613 -1.7842896009130715 2.9978561397223435 -2.1090069767676893 2.5991753615897286 -2.1090069767676893 Z M 2.9951501615902214 -0.9282985184518693 C 2.888715021726763 -0.8353932692490202 2.749808144277843 -0.7794697211851696 2.5982733688790214 -0.7794697211851696 C 2.26453606591733 -0.7794697211851696 1.993036259994441 -1.0509695271080588 1.993036259994441 -1.3847068300697498 C 1.993036259994441 -1.5362416054685717 2.048959808058292 -1.6751484829174914 2.141865057261141 -1.7815836227809498 C 2.252810160678136 -1.908764594990676 2.416070841316152 -1.9899439389543305 2.5982733688790214 -1.9899439389543305 C 2.9320106718407124 -1.9899439389543305 3.203510477763602 -1.7184441330314413 3.203510477763602 -1.3847068300697498 C 3.203510477763602 -1.203406295217588 3.1232331265106548 -1.0392436218688639 2.9951501615902214 -0.9282985184518693 Z" fill="#ffffff" transform="matrix(1,0,0,1,0,0)" fill-rule="nonzero"></path></g><g clip-path="url(#SvgjsClipPath323900c8640fe-0d9d-49b7-9c22-1dc605905c51)"><path d=" M 2.7056105014531875 -2.9947638186822316 L 2.7209443775352105 -3.053393344878204 L 2.8129476340273523 -3.029941534399815 C 2.8860090435946417 -3.0109996874749623 2.959972445872638 -3.0551973302996194 2.9789142927974903 -3.128258739866908 L 3.0546816804969015 -3.4232103562681866 C 3.0736235274217543 -3.496271765835475 3.0294258845970976 -3.570235168113472 2.956364475029809 -3.5891770150383246 L 2.47289638209071 -3.713652009115928 C 2.399834972523421 -3.732593856040781 2.3258715702454245 -3.6883962132161248 2.3069297233205717 -3.6153348036488353 L 2.2311623356211614 -3.3203831872475575 C 2.2122204886963086 -3.247321777680268 2.256418131520965 -3.173358375402272 2.329479541088254 -3.154416528477419 L 2.5712135875578035 -3.0921790314386173 L 2.6262351429109465 -2.9947638186822316 L 2.681256698264091 -2.8973486059258455 L 2.7056105014531875 -2.9947638186822316 Z M 2.4737983748014183 -3.5558032847421552 C 2.578429529243462 -3.637884621416517 2.637059055439434 -3.4583880719857696 2.637059055439434 -3.4583880719857696 C 2.637059055439434 -3.4583880719857696 2.758828071384916 -3.580157087931252 2.830085495530791 -3.4872518387284024 C 2.9437365770799078 -3.3393250341724094 2.5856454709291192 -3.2085360911198553 2.5856454709291192 -3.2085360911198553 C 2.5856454709291192 -3.2085360911198553 2.3655592495165454 -3.4141904291611134 2.4737983748014183 -3.5558032847421552 Z" fill="#ff0000" transform="matrix(1,0,0,1,0,0)" fill-rule="nonzero"></path></g><g clip-path="url(#SvgjsClipPath323900c8640fe-0d9d-49b7-9c22-1dc605905c51)"><path d=" M 2.830085495530791 -3.487251838728403 C 2.758828071384916 -3.5801570879312523 2.637059055439434 -3.4583880719857705 2.637059055439434 -3.4583880719857705 C 2.637059055439434 -3.4583880719857705 2.577527536532754 -3.637884621416518 2.4737983748014183 -3.555803284742156 C 2.3655592495165454 -3.4132884364504066 2.5856454709291192 -3.2076340984091485 2.5856454709291192 -3.2076340984091485 C 2.5856454709291192 -3.2076340984091485 2.943736577079907 -3.33932503417241 2.830085495530791 -3.487251838728403 Z" fill="#ffffff" transform="matrix(1,0,0,1,0,0)" fill-rule="nonzero"></path></g><g clip-path="url(#SvgjsClipPath323900c8640fe-0d9d-49b7-9c22-1dc605905c51)"><path d=" M 2.7750639401776467 -4.003191669252963 L 2.841811400769985 -3.744319761279976 C 2.858047269562716 -3.680278278819759 2.922990744733639 -3.6423945849700536 2.987032227193856 -3.6586304537627847 L 3.067309578446803 -3.679376286109052 L 3.102487294164386 -3.5422733940815467 L 3.198098521499358 -3.7127500164052214 L 3.410066808515567 -3.7668695790476576 C 3.4741082909757837 -3.7831054478403887 3.511991984825488 -3.848048923011312 3.4957561160327577 -3.9120904054715284 L 3.4290086554404198 -4.170962313444516 C 3.4127727866476887 -4.235003795904732 3.347829311476765 -4.272887489754438 3.2837878290165485 -4.256651620961707 L 2.860753247694838 -4.1493144883875415 C 2.7967117652346216 -4.132176626884103 2.757926078674209 -4.067233151713179 2.7750639401776467 -4.003191669252963 Z M 2.9716983511118324 -4.060017210027521 C 3.033935848150634 -4.1411965539911755 3.1403709880140926 -4.0347614141277175 3.1403709880140926 -4.0347614141277175 C 3.1403709880140926 -4.0347614141277175 3.1917845725244067 -4.191708145790783 3.2837878290165485 -4.120450721644908 C 3.3784970636408125 -3.9959757275673047 3.1863726162601633 -3.81557718542585 3.1863726162601633 -3.81557718542585 C 3.1863726162601633 -3.81557718542585 2.8724791529340323 -3.930130259685674 2.9716983511118324 -4.060017210027521 Z" fill="#ff0000" transform="matrix(1,0,0,1,0,0)" fill-rule="nonzero"></path></g><g clip-path="url(#SvgjsClipPath323900c8640fe-0d9d-49b7-9c22-1dc605905c51)"><path d=" M 3.185470623549456 -3.81557718542585 C 3.185470623549456 -3.81557718542585 3.3784970636408125 -3.9959757275673047 3.2828858363058417 -4.120450721644908 C 3.1917845725244067 -4.1926101385014904 3.139468995303386 -4.0347614141277175 3.139468995303386 -4.0347614141277175 C 3.139468995303386 -4.0347614141277175 3.0330338554399274 -4.1411965539911755 2.9707963584011257 -4.060017210027521 C 2.8724791529340323 -3.930130259685674 3.185470623549456 -3.81557718542585 3.185470623549456 -3.81557718542585 Z" fill="#ffffff" transform="matrix(1,0,0,1,0,0)" fill-rule="nonzero"></path></g><g clip-path="url(#SvgjsClipPath323900c8640fe-0d9d-49b7-9c22-1dc605905c51)"><path d=" M 2.270850014892282 -4.145706517544712 L 2.449444571612322 -4.099704889298641 L 2.530623915575976 -3.9553860555854774 L 2.5603896750293167 -4.070841122556009 L 2.628039128332362 -4.05370326105257 C 2.6821586909747985 -4.040173370391961 2.7371802463279424 -4.072645107977423 2.750710136988551 -4.125862677909152 L 2.806633685052402 -4.344144913900312 C 2.8201635757130115 -4.3982644765427485 2.7876918381275493 -4.453286031895892 2.73447426819582 -4.466815922556501 L 2.3772851547557403 -4.558819179048643 C 2.3231655921133036 -4.572349069709252 2.2681440367601597 -4.53987733212379 2.254614146099551 -4.486659762192061 L 2.1986905980357 -4.268377526200901 C 2.184258714664383 -4.215159956269172 2.216730452249845 -4.160138400916028 2.270850014892282 -4.145706517544712 Z M 2.3772851547557394 -4.443364112078112 C 2.4539545351658574 -4.503797623695499 2.498152177990514 -4.371204695221531 2.498152177990514 -4.371204695221531 C 2.498152177990514 -4.371204695221531 2.588351449061241 -4.4614039662922576 2.640667026282263 -4.392852520278505 C 2.7245523483780394 -4.282809409572217 2.4602684841408085 -4.18629618952654 2.4602684841408085 -4.18629618952654 C 2.4602684841408085 -4.18629618952654 2.297007803502792 -4.337830964925361 2.3772851547557394 -4.443364112078112 Z" fill="#ff0000" transform="matrix(1,0,0,1,0,0)" fill-rule="nonzero"></path></g><g clip-path="url(#SvgjsClipPath323900c8640fe-0d9d-49b7-9c22-1dc605905c51)"><path d=" M 2.4602684841408093 -4.186296189526539 C 2.4602684841408093 -4.186296189526539 2.7254543410887466 -4.282809409572217 2.6406670262822636 -4.392852520278504 C 2.588351449061242 -4.4614039662922576 2.498152177990515 -4.371204695221531 2.498152177990515 -4.371204695221531 C 2.498152177990515 -4.371204695221531 2.453954535165858 -4.503797623695499 2.3772851547557403 -4.443364112078112 C 2.297007803502792 -4.337830964925361 2.4602684841408093 -4.186296189526539 2.4602684841408093 -4.186296189526539 Z" fill="#ffffff" transform="matrix(1,0,0,1,0,0)" fill-rule="nonzero"></path></g><g clip-path="url(#SvgjsClipPath323900c8640fe-0d9d-49b7-9c22-1dc605905c51)"><path d=" M 2.8842050581732277 -4.443364112078112 C 2.8941269779910077 -4.405480418228406 2.93291266455142 -4.382930600460725 2.9707963584011257 -4.391950527567798 L 3.0186019720686112 -4.404578425517699 L 3.0393478044148785 -4.323399081554045 L 3.096173345189437 -4.425324257863966 L 3.2215503319777476 -4.457795995449429 C 3.259434025827453 -4.467717915267208 3.281983843595135 -4.506503601827621 3.272963916488062 -4.544387295677327 L 3.233276237216942 -4.697726056497563 C 3.223354317399162 -4.735609750347268 3.1845686308387497 -4.758159568114951 3.146684936989044 -4.749139641007877 L 2.895028970701715 -4.684196165836954 C 2.8571452768520094 -4.6742742460191735 2.8345954590843276 -4.635488559458762 2.8436153861914 -4.597604865609056 L 2.8842050581732277 -4.443364112078112 Z M 2.9617764312940524 -4.630076603194517 C 2.9987581324330512 -4.677882216862003 3.06189762218256 -4.614742727112494 3.06189762218256 -4.614742727112494 C 3.06189762218256 -4.614742727112494 3.092565374346607 -4.70854996902605 3.1466849369890437 -4.665254318912101 C 3.203510477763602 -4.5912909166341045 3.088957403503778 -4.483953784059939 3.088957403503778 -4.483953784059939 C 3.088957403503778 -4.483953784059939 2.9031469050980796 -4.552505230073693 2.9617764312940524 -4.630076603194517 Z" fill="#ff0000" transform="matrix(1,0,0,1,0,0)" fill-rule="nonzero"></path></g><g clip-path="url(#SvgjsClipPath323900c8640fe-0d9d-49b7-9c22-1dc605905c51)"><path d=" M 3.088957403503778 -4.4848557767706465 C 3.088957403503778 -4.4848557767706465 3.203510477763602 -4.592192909344813 3.1466849369890437 -4.666156311622808 C 3.092565374346607 -4.70854996902605 3.06189762218256 -4.615644719823202 3.06189762218256 -4.615644719823202 C 3.06189762218256 -4.615644719823202 2.9987581324330512 -4.678784209572711 2.9617764312940524 -4.630978595905225 C 2.9031469050980796 -4.552505230073693 3.088957403503778 -4.4848557767706465 3.088957403503778 -4.4848557767706465 Z" fill="#ffffff" transform="matrix(1,0,0,1,0,0)" fill-rule="nonzero"></path></g></g><g><path d=" M 1.0755000000000001 1.1789999999999998 Q 1.0605 1.1789999999999998 1.0455 1.1775 Q 1.0305 1.176 1.014 1.173 Q 0.912 1.1535 0.8295 1.1055 Q 0.747 1.0574999999999999 0.68175 0.9937499999999999 Q 0.6165 0.9299999999999999 0.56325 0.8594999999999999 Q 0.51 0.7889999999999999 0.4665 0.7237499999999999 Q 0.423 0.6584999999999999 0.3855 0.609 Q 0.3825 0.6014999999999999 0.37875000000000003 0.6044999999999999 Q 0.375 0.6074999999999999 0.375 0.6074999999999999 Q 0.342 0.6704999999999999 0.31425000000000003 0.72525 Q 0.28650000000000003 0.7799999999999999 0.273 0.813 Q 0.261 0.8459999999999999 0.261 0.8594999999999999 Q 0.261 0.8805 0.2775 0.8805 Q 0.2985 0.8805 0.3225 0.8519999999999999 Q 0.339 0.8324999999999999 0.35325 0.8152499999999999 Q 0.3675 0.7979999999999999 0.378 0.8009999999999999 Q 0.3795 0.8024999999999999 0.3795 0.8054999999999999 Q 0.3795 0.813 0.369 0.8257499999999999 Q 0.3585 0.8384999999999999 0.357 0.8399999999999999 Q 0.34650000000000003 0.8549999999999999 0.32925 0.8805 Q 0.312 0.9059999999999999 0.29325 0.9262499999999999 Q 0.2745 0.9464999999999999 0.2535 0.9464999999999999 Q 0.2505 0.9464999999999999 0.23625000000000002 0.9434999999999999 Q 0.222 0.9404999999999999 0.20925 0.9359999999999999 Q 0.1965 0.9314999999999999 0.195 0.9254999999999999 Q 0.192 0.8969999999999999 0.20925 0.84525 Q 0.2265 0.7934999999999999 0.2565 0.7304999999999999 Q 0.28650000000000003 0.6674999999999999 0.318 0.6074999999999999 Q 0.294 0.6014999999999999 0.28350000000000003 0.597 Q 0.2685 0.5864999999999999 0.2685 0.5684999999999999 Q 0.2685 0.5534999999999999 0.2805 0.5414999999999999 Q 0.2925 0.5294999999999999 0.3165 0.5294999999999999 Q 0.324 0.5294999999999999 0.3345 0.5325 Q 0.34500000000000003 0.5354999999999999 0.35100000000000003 0.5429999999999999 Q 0.3765 0.4979999999999999 0.39675 0.4604999999999999 Q 0.417 0.42299999999999993 0.426 0.4019999999999999 Q 0.435 0.38549999999999995 0.438 0.37424999999999986 Q 0.441 0.3629999999999999 0.441 0.3569999999999999 Q 0.441 0.34799999999999986 0.438 0.34199999999999986 Q 0.441 0.32399999999999995 0.45975 0.29399999999999993 Q 0.47850000000000004 0.2639999999999999 0.507 0.23399999999999987 Q 0.5355 0.20399999999999985 0.5685 0.18374999999999986 Q 0.6015 0.16349999999999987 0.63 0.16349999999999987 Q 0.639 0.16349999999999987 0.6577500000000001 0.16874999999999996 Q 0.6765 0.17399999999999993 0.69375 0.1844999999999999 Q 0.711 0.19499999999999995 0.7155 0.2144999999999999 Q 0.717 0.21899999999999986 0.717 0.22349999999999992 Q 0.717 0.22799999999999987 0.714 0.22799999999999987 Q 0.711 0.22799999999999987 0.70575 0.2257499999999999 Q 0.7005 0.22349999999999992 0.6975 0.22349999999999992 Q 0.6555 0.22349999999999992 0.60375 0.27374999999999994 Q 0.552 0.32399999999999995 0.49875 0.4019999999999999 Q 0.4455 0.4799999999999999 0.399 0.5639999999999998 Q 0.40650000000000003 0.5654999999999999 0.41625 0.56775 Q 0.426 0.5699999999999998 0.4395 0.5699999999999998 Q 0.4455 0.5699999999999998 0.45075 0.5699999999999998 Q 0.456 0.5699999999999998 0.462 0.5684999999999999 Q 0.558 0.5579999999999998 0.6577500000000001 0.5309999999999999 Q 0.7575000000000001 0.5039999999999999 0.8445 0.4604999999999999 Q 0.9315 0.4169999999999999 0.9885 0.35849999999999993 Q 1.041 0.30299999999999994 1.041 0.24449999999999994 Q 1.041 0.20099999999999996 1.008 0.16349999999999987 Q 0.975 0.1259999999999999 0.9045 0.10649999999999993 Q 0.8625 0.09449999999999992 0.80925 0.08849999999999991 Q 0.756 0.0824999999999999 0.6945 0.0824999999999999 Q 0.5985 0.0824999999999999 0.49725 0.09899999999999987 Q 0.396 0.11549999999999994 0.3075 0.14924999999999988 Q 0.219 0.18299999999999994 0.159 0.23399999999999987 Q 0.099 0.2849999999999999 0.08700000000000001 0.3554999999999999 Q 0.0825 0.39149999999999996 0.1005 0.4124999999999999 Q 0.11850000000000001 0.4334999999999999 0.14475 0.4447499999999999 Q 0.171 0.4559999999999999 0.186 0.4649999999999999 Q 0.1965 0.4739999999999999 0.1965 0.4799999999999999 Q 0.1965 0.4904999999999999 0.177 0.48749999999999993 Q 0.156 0.48299999999999993 0.12525 0.4664999999999999 Q 0.0945 0.4499999999999999 0.07125000000000001 0.4207499999999999 Q 0.048 0.39149999999999996 0.048 0.3524999999999999 Q 0.048 0.3464999999999999 0.04875 0.3404999999999999 Q 0.0495 0.3344999999999999 0.051000000000000004 0.3284999999999999 Q 0.051000000000000004 0.32699999999999996 0.05025 0.31874999999999987 Q 0.0495 0.3104999999999999 0.0495 0.3044999999999999 Q 0.0585 0.2579999999999999 0.09525 0.2167499999999999 Q 0.132 0.17549999999999988 0.17925 0.14324999999999988 Q 0.2265 0.11099999999999988 0.267 0.09149999999999991 Q 0.3375 0.05699999999999994 0.4365 0.03674999999999995 Q 0.5355 0.016499999999999848 0.6435 0.016499999999999848 Q 0.7095 0.016499999999999848 0.77475 0.025499999999999856 Q 0.84 0.034499999999999864 0.9015 0.05399999999999994 Q 0.987 0.0824999999999999 1.0342500000000001 0.14174999999999993 Q 1.0815000000000001 0.20099999999999996 1.077 0.26549999999999996 Q 1.0725 0.32699999999999996 1.0342500000000001 0.37649999999999995 Q 0.996 0.42599999999999993 0.93675 0.4627499999999999 Q 0.8775000000000001 0.4994999999999999 0.80625 0.5257499999999999 Q 0.735 0.5519999999999999 0.663 0.5684999999999999 Q 0.6045 0.5804999999999999 0.54 0.5879999999999999 Q 0.47550000000000003 0.5954999999999999 0.4185 0.5984999999999999 Q 0.483 0.6779999999999999 0.54675 0.7582499999999999 Q 0.6105 0.8384999999999999 0.68325 0.9089999999999999 Q 0.756 0.9794999999999999 0.843 1.02975 Q 0.93 1.0799999999999998 1.0395 1.101 Q 1.062 1.1055 1.086 1.1055 Q 1.125 1.1055 1.1632500000000001 1.0935 Q 1.2015 1.0815 1.227 1.0559999999999998 Q 1.2525 1.0305 1.2525 0.9884999999999999 Q 1.2525 0.9809999999999999 1.25175 0.9734999999999999 Q 1.2510000000000001 0.966 1.2495 0.9584999999999999 Q 1.2495 0.9554999999999999 1.24875 0.954 Q 1.248 0.9524999999999999 1.248 0.951 Q 1.248 0.9374999999999999 1.2585 0.9374999999999999 Q 1.2735 0.9374999999999999 1.278 0.96 Q 1.2825 0.9824999999999999 1.2825 1.002 Q 1.2825 1.0245 1.27875 1.044 Q 1.2750000000000001 1.0635 1.2690000000000001 1.0799999999999998 Q 1.2555 1.1219999999999999 1.20075 1.1504999999999999 Q 1.1460000000000001 1.1789999999999998 1.0755000000000001 1.1789999999999998 M 1.048537353515625 0.6509999999999999 Q 1.021537353515625 0.6509999999999999 1.021537353515625 0.6359999999999999 Q 1.021537353515625 0.6239999999999999 1.038787353515625 0.6104999999999999 Q 1.056037353515625 0.597 1.071037353515625 0.597 Q 1.087537353515625 0.597 1.128037353515625 0.59625 Q 1.168537353515625 0.5954999999999999 1.215037353515625 0.5947499999999999 Q 1.261537353515625 0.5939999999999999 1.291537353515625 0.5939999999999999 Q 1.329037353515625 0.5939999999999999 1.352287353515625 0.6007499999999999 Q 1.375537353515625 0.6074999999999999 1.375537353515625 0.615 Q 1.375537353515625 0.6239999999999999 1.357537353515625 0.6284999999999998 Q 1.339537353515625 0.6329999999999999 1.320037353515625 0.6352499999999999 Q 1.300537353515625 0.6375 1.293037353515625 0.6389999999999999 Q 1.257037353515625 0.6404999999999998 1.208287353515625 0.6435 Q 1.159537353515625 0.6464999999999999 1.1152873535156251 0.6487499999999999 Q 1.071037353515625 0.6509999999999999 1.048537353515625 0.6509999999999999 M 1.432502197265625 1.0214999999999999 Q 1.399502197265625 1.0214999999999999 1.378502197265625 1.0005 Q 1.357502197265625 0.9794999999999999 1.357502197265625 0.942 Q 1.357502197265625 0.9209999999999999 1.365752197265625 0.8947499999999999 Q 1.374002197265625 0.8684999999999999 1.393502197265625 0.8384999999999999 Q 1.428002197265625 0.7845 1.482752197265625 0.7177499999999999 Q 1.537502197265625 0.6509999999999999 1.599002197265625 0.585 Q 1.6605021972656249 0.5189999999999999 1.715252197265625 0.4642499999999999 Q 1.770002197265625 0.4094999999999999 1.803002197265625 0.37949999999999995 Q 1.818002197265625 0.3344999999999999 1.832252197265625 0.28649999999999987 Q 1.846502197265625 0.23849999999999993 1.861502197265625 0.1874999999999999 Q 1.8195021972656251 0.22649999999999992 1.7662521972656249 0.24599999999999989 Q 1.713002197265625 0.26549999999999996 1.666502197265625 0.26849999999999985 L 1.665002197265625 0.26849999999999985 Q 1.650002197265625 0.26849999999999985 1.650002197265625 0.2579999999999999 Q 1.650002197265625 0.24599999999999989 1.668002197265625 0.24449999999999994 Q 1.711502197265625 0.23999999999999988 1.758002197265625 0.21074999999999988 Q 1.804502197265625 0.18149999999999988 1.844252197265625 0.13574999999999993 Q 1.884002197265625 0.08999999999999986 1.905002197265625 0.03749999999999987 Q 1.908002197265625 0.02849999999999986 1.9252521972656251 0.02399999999999991 Q 1.942502197265625 0.01949999999999985 1.962002197265625 0.01949999999999985 Q 1.978502197265625 0.01949999999999985 1.991252197265625 0.023249999999999882 Q 2.004002197265625 0.026999999999999913 2.001002197265625 0.03749999999999987 Q 1.974002197265625 0.10649999999999993 1.9485021972656251 0.1702499999999999 Q 1.923002197265625 0.23399999999999987 1.899002197265625 0.29399999999999993 Q 1.987502197265625 0.21899999999999986 2.064752197265625 0.16874999999999996 Q 2.142002197265625 0.11849999999999994 2.190002197265625 0.11549999999999994 Q 2.275502197265625 0.11099999999999988 2.324252197265625 0.1439999999999999 Q 2.373002197265625 0.17699999999999994 2.393252197265625 0.2317499999999999 Q 2.413502197265625 0.28649999999999987 2.413502197265625 0.34799999999999986 Q 2.413502197265625 0.3629999999999999 2.412752197265625 0.37649999999999995 Q 2.412002197265625 0.3899999999999999 2.4105021972656253 0.40349999999999986 Q 2.403002197265625 0.4724999999999999 2.380502197265625 0.5609999999999999 Q 2.358002197265625 0.6495 2.332502197265625 0.726 Q 2.329502197265625 0.7334999999999999 2.323502197265625 0.7522499999999999 Q 2.317502197265625 0.7709999999999999 2.322002197265625 0.7709999999999999 Q 2.323502197265625 0.7709999999999999 2.337002197265625 0.7515 Q 2.374502197265625 0.69 2.4097521972656253 0.6307499999999999 Q 2.445002197265625 0.5714999999999999 2.485502197265625 0.5085 Q 2.545502197265625 0.4154999999999999 2.616752197265625 0.32099999999999995 Q 2.688002197265625 0.22649999999999992 2.7600021972656252 0.15149999999999986 Q 2.788502197265625 0.12149999999999994 2.819252197265625 0.10649999999999993 Q 2.850002197265625 0.09149999999999991 2.8770021972656252 0.09149999999999991 Q 2.907002197265625 0.09149999999999991 2.9272521972656254 0.1117499999999999 Q 2.9475021972656252 0.1319999999999999 2.9475021972656252 0.17399999999999993 Q 2.9475021972656252 0.1844999999999999 2.945252197265625 0.19724999999999993 Q 2.943002197265625 0.20999999999999985 2.940002197265625 0.22499999999999987 Q 2.922002197265625 0.29699999999999993 2.898002197265625 0.3569999999999999 Q 2.874002197265625 0.4169999999999999 2.850002197265625 0.4747499999999999 Q 2.826002197265625 0.5325 2.8072521972656252 0.5954999999999999 Q 2.788502197265625 0.6584999999999999 2.781002197265625 0.7349999999999999 Q 2.779502197265625 0.7484999999999999 2.778752197265625 0.7605 Q 2.778002197265625 0.7725 2.778002197265625 0.7829999999999999 Q 2.778002197265625 0.8339999999999999 2.7930021972656247 0.85725 Q 2.8080021972656253 0.8805 2.8320021972656253 0.8805 Q 2.860502197265625 0.8805 2.898752197265625 0.8557499999999999 Q 2.937002197265625 0.831 2.976002197265625 0.7942499999999999 Q 3.015002197265625 0.7575 3.046502197265625 0.72225 Q 3.078002197265625 0.6869999999999999 3.093002197265625 0.6659999999999999 Q 3.096002197265625 0.6615 3.102002197265625 0.6615 Q 3.108002197265625 0.6615 3.1125021972656253 0.6659999999999999 Q 3.117002197265625 0.6704999999999999 3.1125021972656253 0.6779999999999999 Q 3.093002197265625 0.708 3.057752197265625 0.7477499999999999 Q 3.022502197265625 0.7874999999999999 2.984252197265625 0.8242499999999999 Q 2.946002197265625 0.8609999999999999 2.916002197265625 0.8835 Q 2.893502197265625 0.8999999999999999 2.8642521972656247 0.9104999999999999 Q 2.835002197265625 0.9209999999999999 2.806502197265625 0.9209999999999999 Q 2.773502197265625 0.9209999999999999 2.7465021972656247 0.9045 Q 2.719502197265625 0.8879999999999999 2.709002197265625 0.8474999999999999 Q 2.704502197265625 0.8324999999999999 2.703002197265625 0.816 Q 2.701502197265625 0.7994999999999999 2.701502197265625 0.7814999999999999 Q 2.701502197265625 0.7184999999999999 2.719502197265625 0.6412499999999999 Q 2.7375021972656253 0.5639999999999998 2.764502197265625 0.4867499999999999 Q 2.791502197265625 0.4094999999999999 2.8162521972656247 0.3457499999999999 Q 2.8410021972656248 0.2819999999999999 2.8545021972656253 0.24449999999999994 Q 2.8650021972656248 0.22349999999999992 2.8650021972656248 0.2054999999999999 Q 2.8650021972656248 0.17399999999999993 2.838002197265625 0.17399999999999993 Q 2.815502197265625 0.17399999999999993 2.7855021972656253 0.1994999999999999 Q 2.742002197265625 0.23699999999999988 2.6902521972656253 0.29699999999999993 Q 2.638502197265625 0.3569999999999999 2.585252197265625 0.4289999999999999 Q 2.532002197265625 0.5009999999999999 2.4817521972656253 0.5767499999999999 Q 2.431502197265625 0.6524999999999999 2.390252197265625 0.72225 Q 2.3490021972656248 0.7919999999999999 2.323502197265625 0.8459999999999999 Q 2.313002197265625 0.8684999999999999 2.299502197265625 0.8684999999999999 Q 2.289002197265625 0.8684999999999999 2.279252197265625 0.8549999999999999 Q 2.269502197265625 0.8414999999999999 2.264252197265625 0.8257499999999999 Q 2.259002197265625 0.8099999999999999 2.262002197265625 0.8039999999999999 Q 2.281502197265625 0.7559999999999999 2.298002197265625 0.6862499999999999 Q 2.3145021972656252 0.6164999999999999 2.325002197265625 0.53775 Q 2.335502197265625 0.4589999999999999 2.335502197265625 0.3869999999999999 Q 2.335502197265625 0.2909999999999999 2.311502197265625 0.22424999999999995 Q 2.287502197265625 0.15749999999999986 2.227502197265625 0.15749999999999986 Q 2.188502197265625 0.15749999999999986 2.1285021972656253 0.1904999999999999 Q 2.068502197265625 0.22349999999999992 1.998752197265625 0.2789999999999999 Q 1.929002197265625 0.3344999999999999 1.855502197265625 0.4019999999999999 Q 1.842002197265625 0.4349999999999999 1.815752197265625 0.4979999999999999 Q 1.7895021972656249 0.5609999999999999 1.754252197265625 0.6375 Q 1.719002197265625 0.714 1.676252197265625 0.78975 Q 1.633502197265625 0.8654999999999999 1.588502197265625 0.9224999999999999 Q 1.548002197265625 0.9734999999999999 1.507502197265625 0.9974999999999999 Q 1.467002197265625 1.0214999999999999 1.432502197265625 1.0214999999999999 M 1.440002197265625 0.9689999999999999 Q 1.479002197265625 0.9689999999999999 1.5202521972656249 0.92775 Q 1.5615021972656251 0.8865 1.602752197265625 0.8227499999999999 Q 1.6440021972656251 0.7589999999999999 1.678502197265625 0.69 Q 1.713002197265625 0.6209999999999999 1.7377521972656251 0.5624999999999999 Q 1.762502197265625 0.5039999999999999 1.7730021972656251 0.4754999999999999 Q 1.7310021972656249 0.5159999999999999 1.684502197265625 0.5647499999999999 Q 1.638002197265625 0.6134999999999999 1.593752197265625 0.66375 Q 1.549502197265625 0.714 1.513502197265625 0.7575 Q 1.477502197265625 0.8009999999999999 1.456502197265625 0.8294999999999999 Q 1.432502197265625 0.8624999999999999 1.421252197265625 0.8887499999999999 Q 1.410002197265625 0.9149999999999999 1.410002197265625 0.9344999999999999 Q 1.410002197265625 0.9689999999999999 1.440002197265625 0.9689999999999999 M 3.209958251953125 0.9284999999999999 Q 3.142458251953125 0.9284999999999999 3.092958251953125 0.8969999999999999 Q 3.043458251953125 0.8654999999999999 3.043458251953125 0.8009999999999999 Q 3.043458251953125 0.7665 3.064458251953125 0.7169999999999999 Q 3.079458251953125 0.6824999999999999 3.119958251953125 0.6375 Q 3.160458251953125 0.5924999999999999 3.214458251953125 0.54975 Q 3.268458251953125 0.5069999999999999 3.323958251953125 0.4792499999999999 Q 3.379458251953125 0.4514999999999999 3.424458251953125 0.4514999999999999 Q 3.440958251953125 0.4514999999999999 3.454458251953125 0.4559999999999999 Q 3.479958251953125 0.4649999999999999 3.489708251953125 0.48449999999999993 Q 3.4994582519531248 0.5039999999999999 3.4994582519531248 0.5249999999999999 Q 3.4994582519531248 0.5445 3.493458251953125 0.5624999999999999 Q 3.487458251953125 0.5804999999999999 3.478458251953125 0.5939999999999999 Q 3.451458251953125 0.6344999999999998 3.401208251953125 0.6659999999999999 Q 3.350958251953125 0.6974999999999999 3.299208251953125 0.7154999999999999 Q 3.247458251953125 0.7334999999999999 3.214458251953125 0.7364999999999999 L 3.211458251953125 0.7364999999999999 Q 3.191958251953125 0.7364999999999999 3.191958251953125 0.7244999999999999 Q 3.191958251953125 0.7169999999999999 3.203958251953125 0.7169999999999999 Q 3.239958251953125 0.714 3.294708251953125 0.6832499999999999 Q 3.349458251953125 0.6524999999999999 3.391458251953125 0.6194999999999999 Q 3.409458251953125 0.6044999999999999 3.434208251953125 0.5774999999999999 Q 3.458958251953125 0.5505 3.458958251953125 0.5249999999999999 Q 3.458958251953125 0.4979999999999999 3.433458251953125 0.4979999999999999 Q 3.419958251953125 0.4979999999999999 3.4057082519531248 0.5039999999999999 Q 3.391458251953125 0.5099999999999999 3.3824582519531248 0.5129999999999999 Q 3.338958251953125 0.5339999999999999 3.286458251953125 0.5782499999999999 Q 3.233958251953125 0.6224999999999998 3.191208251953125 0.6772499999999999 Q 3.148458251953125 0.7319999999999999 3.131958251953125 0.7874999999999999 Q 3.127458251953125 0.7994999999999999 3.125958251953125 0.8107499999999999 Q 3.124458251953125 0.822 3.124458251953125 0.8324999999999999 Q 3.124458251953125 0.8684999999999999 3.147708251953125 0.8835 Q 3.170958251953125 0.8985 3.203958251953125 0.8985 Q 3.253458251953125 0.8985 3.305958251953125 0.8767499999999999 Q 3.358458251953125 0.8549999999999999 3.407958251953125 0.8204999999999999 Q 3.457458251953125 0.7859999999999999 3.498708251953125 0.7462499999999999 Q 3.539958251953125 0.7064999999999999 3.568458251953125 0.6689999999999999 Q 3.572958251953125 0.6629999999999999 3.578958251953125 0.6622499999999999 Q 3.584958251953125 0.6615 3.586458251953125 0.6644999999999999 Q 3.5924582519531247 0.6659999999999999 3.5924582519531247 0.67275 Q 3.5924582519531247 0.6794999999999999 3.589458251953125 0.6854999999999999 Q 3.547458251953125 0.7439999999999999 3.4882082519531252 0.7994999999999999 Q 3.428958251953125 0.8549999999999999 3.357708251953125 0.8917499999999999 Q 3.286458251953125 0.9284999999999999 3.209958251953125 0.9284999999999999 M 3.953912841796875 1.0695 Q 3.914912841796875 1.0635 3.898412841796875 1.032 Q 3.881912841796875 1.0005 3.881912841796875 0.954 Q 3.881912841796875 0.8985 3.897662841796875 0.8339999999999999 Q 3.913412841796875 0.7694999999999999 3.934412841796875 0.7124999999999999 Q 3.955412841796875 0.6555 3.9674128417968753 0.6255 Q 3.932912841796875 0.6659999999999999 3.888662841796875 0.714 Q 3.844412841796875 0.7619999999999999 3.796412841796875 0.8054999999999999 Q 3.748412841796875 0.8489999999999999 3.704162841796875 0.8767499999999999 Q 3.659912841796875 0.9045 3.626912841796875 0.9045 Q 3.602912841796875 0.9045 3.575912841796875 0.8902499999999999 Q 3.548912841796875 0.8759999999999999 3.532412841796875 0.8534999999999999 Q 3.509912841796875 0.8234999999999999 3.509912841796875 0.7919999999999999 Q 3.509912841796875 0.7515 3.537662841796875 0.708 Q 3.565412841796875 0.6644999999999999 3.609662841796875 0.6232499999999999 Q 3.653912841796875 0.5819999999999999 3.704162841796875 0.5482499999999999 Q 3.754412841796875 0.5145 3.800162841796875 0.4912499999999999 Q 3.845912841796875 0.4679999999999999 3.874412841796875 0.4604999999999999 Q 3.889412841796875 0.4574999999999999 3.905912841796875 0.4544999999999999 Q 3.922412841796875 0.4514999999999999 3.940412841796875 0.4514999999999999 Q 3.962912841796875 0.4514999999999999 3.985412841796875 0.45674999999999993 Q 4.007912841796875 0.4619999999999999 4.022912841796875 0.4739999999999999 L 4.028912841796875 0.4784999999999999 Q 4.064912841796875 0.3959999999999999 4.108412841796875 0.3112499999999999 Q 4.151912841796875 0.22649999999999992 4.201412841796875 0.15599999999999992 Q 4.250912841796875 0.08549999999999991 4.306412841796875 0.042749999999999844 Q 4.361912841796875 -1.1102230246251565e-16 4.421912841796875 -1.1102230246251565e-16 Q 4.429412841796875 -1.1102230246251565e-16 4.436912841796875 0.0007499999999999174 Q 4.444412841796875 0.0014999999999999458 4.450412841796875 0.0029999999999998916 Q 4.487912841796875 0.010499999999999843 4.503662841796875 0.029249999999999887 Q 4.519412841796875 0.04799999999999993 4.519412841796875 0.0734999999999999 Q 4.519412841796875 0.09149999999999991 4.512662841796875 0.1117499999999999 Q 4.505912841796875 0.1319999999999999 4.493912841796875 0.15149999999999986 Q 4.460912841796875 0.20999999999999985 4.407662841796875 0.2669999999999999 Q 4.354412841796875 0.32399999999999995 4.291412841796875 0.37724999999999986 Q 4.228412841796875 0.4304999999999999 4.166162841796875 0.4799999999999999 Q 4.103912841796875 0.5294999999999999 4.052912841796875 0.573 Q 4.030412841796875 0.6255 4.007912841796875 0.696 Q 3.985412841796875 0.7665 3.970412841796875 0.816 Q 3.961412841796875 0.8519999999999999 3.956162841796875 0.8835 Q 3.950912841796875 0.9149999999999999 3.950912841796875 0.942 Q 3.950912841796875 0.9914999999999999 3.968912841796875 1.023 Q 3.983912841796875 1.047 4.006412841796875 1.047 Q 4.022912841796875 1.047 4.036412841796875 1.035 Q 4.0424128417968745 1.032 4.047662841796875 1.0274999999999999 Q 4.052912841796875 1.023 4.060412841796875 1.0185 Q 4.069412841796875 1.014 4.075412841796875 1.014 Q 4.085912841796875 1.014 4.076912841796875 1.0305 Q 4.072412841796875 1.035 4.0664128417968755 1.04175 Q 4.060412841796875 1.0485 4.052912841796875 1.0559999999999998 Q 4.0424128417968745 1.0635 4.021412841796875 1.0679999999999998 Q 4.000412841796875 1.0725 3.979412841796875 1.0725 Q 3.973412841796875 1.0725 3.9666628417968752 1.07175 Q 3.959912841796875 1.071 3.953912841796875 1.0695 M 4.097912841796875 0.48749999999999993 Q 4.157912841796875 0.4469999999999999 4.228412841796875 0.38624999999999987 Q 4.298912841796875 0.3254999999999999 4.360412841796875 0.2557499999999999 Q 4.421912841796875 0.18599999999999994 4.454912841796875 0.12299999999999989 Q 4.474412841796875 0.08699999999999986 4.474412841796875 0.06599999999999995 Q 4.474412841796875 0.04049999999999987 4.451912841796875 0.04049999999999987 Q 4.430912841796875 0.04049999999999987 4.396412841796875 0.06449999999999989 Q 4.295912841796875 0.14249999999999985 4.226912841796875 0.24974999999999992 Q 4.157912841796875 0.3569999999999999 4.097912841796875 0.48749999999999993 M 3.584912841796875 0.8684999999999999 Q 3.592412841796875 0.8775 3.604412841796875 0.8775 Q 3.626912841796875 0.8775 3.657662841796875 0.8579999999999999 Q 3.688412841796875 0.8384999999999999 3.698912841796875 0.828 Q 3.775412841796875 0.7665 3.852662841796875 0.6952499999999999 Q 3.929912841796875 0.6239999999999999 3.997412841796875 0.5519999999999999 Q 4.003412841796875 0.5385 4.007912841796875 0.5257499999999999 Q 4.012412841796875 0.5129999999999999 4.018412841796875 0.5009999999999999 Q 3.995912841796875 0.4919999999999999 3.965912841796875 0.4919999999999999 Q 3.905912841796875 0.4919999999999999 3.833912841796875 0.5309999999999999 Q 3.761912841796875 0.5699999999999998 3.704912841796875 0.6224999999999998 Q 3.686912841796875 0.6375 3.656162841796875 0.6742499999999999 Q 3.625412841796875 0.7109999999999999 3.599912841796875 0.7545 Q 3.574412841796875 0.7979999999999999 3.574412841796875 0.8339999999999999 Q 3.574412841796875 0.8534999999999999 3.584912841796875 0.8684999999999999 M 4.475924560546875 0.3839999999999999 Q 4.456424560546875 0.3839999999999999 4.435424560546875 0.38024999999999987 Q 4.414424560546875 0.37649999999999995 4.414424560546875 0.3524999999999999 Q 4.414424560546875 0.34799999999999986 4.434674560546875 0.3314999999999999 Q 4.454924560546875 0.31499999999999995 4.476674560546875 0.29774999999999996 Q 4.498424560546875 0.28049999999999986 4.502924560546875 0.27749999999999986 Q 4.528424560546875 0.25649999999999995 4.534424560546875 0.25649999999999995 Q 4.5419245605468745 0.25649999999999995 4.534424560546875 0.2759999999999999 Q 4.526924560546875 0.2954999999999999 4.526924560546875 0.3104999999999999 Q 4.526924560546875 0.31799999999999995 4.517924560546875 0.33599999999999985 Q 4.508924560546875 0.35399999999999987 4.496924560546875 0.3689999999999999 Q 4.484924560546875 0.3839999999999999 4.475924560546875 0.3839999999999999 M 4.312424560546875 0.9209999999999999 Q 4.285424560546875 0.9209999999999999 4.263674560546875 0.9089999999999999 Q 4.241924560546875 0.8969999999999999 4.231424560546875 0.8639999999999999 Q 4.229924560546875 0.8594999999999999 4.229174560546875 0.8549999999999999 Q 4.228424560546875 0.8504999999999999 4.228424560546875 0.8444999999999999 Q 4.228424560546875 0.8144999999999999 4.241924560546875 0.7694999999999999 Q 4.255424560546875 0.7244999999999999 4.274924560546875 0.6824999999999999 Q 4.265924560546875 0.6944999999999999 4.253924560546875 0.7117499999999999 Q 4.241924560546875 0.7289999999999999 4.219424560546875 0.7559999999999999 Q 4.213424560546875 0.7619999999999999 4.205924560546875 0.7619999999999999 Q 4.195424560546875 0.7619999999999999 4.195424560546875 0.7499999999999999 Q 4.195424560546875 0.7409999999999999 4.201424560546875 0.7349999999999999 Q 4.240424560546875 0.6854999999999999 4.271174560546875 0.6464999999999999 Q 4.301924560546875 0.6074999999999999 4.316924560546875 0.5804999999999999 Q 4.316924560546875 0.579 4.316174560546875 0.5782499999999999 Q 4.315424560546875 0.5774999999999999 4.315424560546875 0.5759999999999998 Q 4.315424560546875 0.5714999999999999 4.319924560546875 0.5624999999999999 Q 4.331924560546875 0.5265 4.344674560546875 0.5017499999999999 Q 4.357424560546875 0.4769999999999999 4.372424560546875 0.4739999999999999 Q 4.375424560546875 0.4739999999999999 4.3784245605468755 0.4732499999999999 Q 4.381424560546875 0.4724999999999999 4.384424560546875 0.4724999999999999 Q 4.400924560546875 0.4724999999999999 4.414424560546875 0.4799999999999999 Q 4.427924560546875 0.48749999999999993 4.427924560546875 0.5025 Q 4.427924560546875 0.5159999999999999 4.418174560546875 0.5354999999999999 Q 4.408424560546875 0.5549999999999999 4.393424560546875 0.5834999999999999 Q 4.360424560546875 0.6524999999999999 4.334174560546875 0.7087499999999999 Q 4.307924560546875 0.7649999999999999 4.304924560546875 0.8009999999999999 Q 4.303424560546875 0.8069999999999999 4.303424560546875 0.8122499999999999 Q 4.303424560546875 0.8174999999999999 4.303424560546875 0.8234999999999999 Q 4.303424560546875 0.8835 4.342424560546875 0.8835 Q 4.366424560546875 0.8835 4.403924560546875 0.85725 Q 4.441424560546875 0.831 4.480424560546875 0.79275 Q 4.5194245605468755 0.7545 4.551674560546875 0.71925 Q 4.583924560546875 0.6839999999999999 4.595924560546875 0.6659999999999999 Q 4.600424560546875 0.6615 4.604924560546875 0.6615 Q 4.610924560546875 0.6615 4.614674560546875 0.6659999999999999 Q 4.618424560546875 0.6704999999999999 4.615424560546875 0.6779999999999999 Q 4.601924560546875 0.7034999999999999 4.569674560546875 0.7417499999999999 Q 4.537424560546875 0.7799999999999999 4.497674560546875 0.8182499999999999 Q 4.457924560546875 0.8564999999999999 4.420424560546875 0.8835 Q 4.400924560546875 0.8985 4.371674560546875 0.90975 Q 4.342424560546875 0.9209999999999999 4.312424560546875 0.9209999999999999 M 4.9964443359375 0.9209999999999999 Q 4.9709443359375 0.9209999999999999 4.9491943359375 0.9089999999999999 Q 4.9274443359375 0.8969999999999999 4.9169443359375 0.8639999999999999 Q 4.9124443359375 0.8504999999999999 4.9124443359375 0.8264999999999999 Q 4.9124443359375 0.7934999999999999 4.9214443359375 0.7529999999999999 Q 4.9304443359375 0.7124999999999999 4.9409443359375 0.6839999999999999 Q 4.9334443359375 0.6869999999999999 4.9131943359375 0.7102499999999999 Q 4.8929443359375 0.7334999999999999 4.8636943359375 0.7657499999999999 Q 4.8344443359375 0.7979999999999999 4.7991943359375 0.8302499999999999 Q 4.7639443359375 0.8624999999999999 4.7264443359375 0.8835 Q 4.6889443359375 0.9045 4.6529443359375 0.9045 Q 4.6289443359375 0.9045 4.6019443359375 0.8902499999999999 Q 4.5749443359375 0.8759999999999999 4.5584443359375 0.8534999999999999 Q 4.5359443359375 0.8234999999999999 4.5359443359375 0.7919999999999999 Q 4.5359443359375 0.7515 4.5636943359375 0.708 Q 4.5914443359375 0.6644999999999999 4.6356943359375 0.6232499999999999 Q 4.6799443359375 0.5819999999999999 4.7301943359375 0.5482499999999999 Q 4.7804443359375 0.5145 4.8261943359375 0.4912499999999999 Q 4.8719443359375 0.4679999999999999 4.9004443359375 0.4604999999999999 Q 4.9304443359375 0.4514999999999999 4.9679443359375 0.4514999999999999 Q 4.9889443359375 0.4514999999999999 5.0114443359375 0.45674999999999993 Q 5.0339443359375 0.4619999999999999 5.0489443359375 0.4739999999999999 Q 5.0609443359375 0.4799999999999999 5.0684443359374995 0.4904999999999999 Q 5.0759443359375 0.5009999999999999 5.0759443359375 0.5129999999999999 Q 5.0759443359375 0.5249999999999999 5.0654443359375 0.5205 Q 5.0534443359375 0.5025 5.0331943359375 0.4972499999999999 Q 5.0129443359375 0.4919999999999999 4.9919443359375 0.4919999999999999 Q 4.9319443359375 0.4919999999999999 4.8599443359375 0.5309999999999999 Q 4.7879443359375 0.5699999999999998 4.7309443359375 0.6224999999999998 Q 4.7129443359375 0.6375 4.6821943359375 0.6742499999999999 Q 4.6514443359375 0.7109999999999999 4.6259443359375 0.7545 Q 4.6004443359375 0.7979999999999999 4.6004443359375 0.8339999999999999 Q 4.6004443359375 0.8534999999999999 4.6109443359375 0.8684999999999999 Q 4.6169443359375 0.8789999999999999 4.6304443359375 0.8789999999999999 Q 4.6514443359375 0.8789999999999999 4.6866943359375 0.8564999999999999 Q 4.7219443359375 0.8339999999999999 4.7594443359375 0.80175 Q 4.7969443359375 0.7694999999999999 4.8276943359375 0.7394999999999999 Q 4.8584443359375005 0.7094999999999999 4.8719443359375 0.696 Q 4.8794443359375 0.6884999999999999 4.9011943359375 0.6652499999999999 Q 4.9229443359375 0.6419999999999999 4.9484443359375 0.615 Q 4.9739443359375 0.5879999999999999 4.9941943359375 0.5684999999999999 Q 5.0144443359375 0.5489999999999999 5.0204443359375 0.5489999999999999 Q 5.0279443359375 0.5489999999999999 5.0451943359375 0.5527499999999999 Q 5.0624443359375 0.5564999999999999 5.0744443359375 0.5639999999999998 Q 5.0864443359375 0.5714999999999999 5.0789443359375 0.5834999999999999 Q 5.0399443359375 0.6404999999999998 5.0166943359375 0.7027499999999999 Q 4.9934443359375 0.7649999999999999 4.9889443359375 0.8009999999999999 Q 4.9874443359375 0.8069999999999999 4.9874443359375 0.8122499999999999 Q 4.9874443359375 0.8174999999999999 4.9874443359375 0.8234999999999999 Q 4.9874443359375 0.8835 5.0294443359375 0.8835 Q 5.0519443359375 0.8835 5.0894443359375 0.8564999999999999 Q 5.1269443359375 0.8294999999999999 5.1659443359375 0.7919999999999999 Q 5.2049443359375 0.7545 5.2371943359375 0.71925 Q 5.2694443359375 0.6839999999999999 5.2814443359375005 0.6659999999999999 Q 5.2859443359375 0.6615 5.2904443359375 0.6615 Q 5.2964443359375 0.6615 5.3009443359375 0.66675 Q 5.3054443359375 0.6719999999999999 5.3009443359375 0.6794999999999999 Q 5.2844443359375 0.7064999999999999 5.2529443359375 0.7439999999999999 Q 5.2214443359375 0.7814999999999999 5.1824443359375 0.819 Q 5.1434443359375 0.8564999999999999 5.1059443359375 0.8835 Q 5.0864443359375 0.8985 5.0564443359375 0.90975 Q 5.0264443359375 0.9209999999999999 4.9964443359375 0.9209999999999999" fill="#1a702d" fill-rule="nonzero"></path></g><g></g></g><defs><clipPath id="SvgjsClipPath32392"><path d=" M 0.8105238162572066 -4.751122635453117 h 3.576401097954337 v 4.501122635453117 h -3.576401097954337 Z"></path></clipPath><clipPath id="SvgjsClipPath323900c8640fe-0d9d-49b7-9c22-1dc605905c51"><path d=" M 0.8105238162572066 -4.751122635453117 L 4.386924914211543 -4.751122635453117 L 4.386924914211543 -0.25 L 0.8105238162572066 -0.25 Z"></path></clipPath></defs></svg>